<svg xmlns="http://www.w3.org/2000/svg" width="1000" height="980" viewBox="0 0 1000 980" role="img" aria-labelledby="title desc"><title id="title">No-RMSNorm training and validation loss curves</title><desc id="desc">Training and validation loss over 1000 steps for learning rates 0.001 and 0.0003.</desc><rect width="1000" height="980" fill="#ffffff"/><g font-family="Arial, sans-serif"><text x="100" y="32" font-size="22" fill="#1f2937">No-RMSNorm Loss Curves</text><text x="100" y="52" font-size="13" fill="#4b5563">1,000-step study; lower is better</text><text x="100" y="78" font-size="16" fill="#1f2937">Validation loss</text><line x1="100" y1="410.00" x2="920" y2="410.00" stroke="#e5e7eb"/><text x="88" y="414.00" text-anchor="end" font-size="12" fill="#4b5563">0</text><line x1="100" y1="367.14" x2="920" y2="367.14" stroke="#e5e7eb"/><text x="88" y="371.14" text-anchor="end" font-size="12" fill="#4b5563">2</text><line x1="100" y1="324.29" x2="920" y2="324.29" stroke="#e5e7eb"/><text x="88" y="328.29" text-anchor="end" font-size="12" fill="#4b5563">4</text><line x1="100" y1="281.43" x2="920" y2="281.43" stroke="#e5e7eb"/><text x="88" y="285.43" text-anchor="end" font-size="12" fill="#4b5563">6</text><line x1="100" y1="238.57" x2="920" y2="238.57" stroke="#e5e7eb"/><text x="88" y="242.57" text-anchor="end" font-size="12" fill="#4b5563">8</text><line x1="100" y1="195.71" x2="920" y2="195.71" stroke="#e5e7eb"/><text x="88" y="199.71" text-anchor="end" font-size="12" fill="#4b5563">10</text><line x1="100" y1="152.86" x2="920" y2="152.86" stroke="#e5e7eb"/><text x="88" y="156.86" text-anchor="end" font-size="12" fill="#4b5563">12</text><line x1="100" y1="110.00" x2="920" y2="110.00" stroke="#e5e7eb"/><text x="88" y="114.00" text-anchor="end" font-size="12" fill="#4b5563">14</text><line x1="100.00" y1="60" x2="100.00" y2="890" stroke="#f3f4f6"/><text x="100.00" y="432" text-anchor="middle" font-size="12" fill="#4b5563">0</text><line x1="264.00" y1="60" x2="264.00" y2="890" stroke="#f3f4f6"/><text x="264.00" y="432" text-anchor="middle" font-size="12" fill="#4b5563">200</text><line x1="428.00" y1="60" x2="428.00" y2="890" stroke="#f3f4f6"/><text x="428.00" y="432" text-anchor="middle" font-size="12" fill="#4b5563">400</text><line x1="592.00" y1="60" x2="592.00" y2="890" stroke="#f3f4f6"/><text x="592.00" y="432" text-anchor="middle" font-size="12" fill="#4b5563">600</text><line x1="756.00" y1="60" x2="756.00" y2="890" stroke="#f3f4f6"/><text x="756.00" y="432" text-anchor="middle" font-size="12" fill="#4b5563">800</text><line x1="920.00" y1="60" x2="920.00" y2="890" stroke="#f3f4f6"/><text x="920.00" y="912" text-anchor="middle" font-size="12" fill="#4b5563">1000</text><line x1="100" y1="410" x2="920" y2="410" stroke="#374151" stroke-width="1.5"/><line x1="100" y1="60" x2="100" y2="410" stroke="#374151" stroke-width="1.5"/><text x="40" y="245" text-anchor="middle" transform="rotate(-90 40 245)" font-size="12" fill="#4b5563">Validation loss</text><path d="M 100.00 125.35 L 182.00 342.37 L 264.00 355.74 L 346.00 360.23 L 428.00 363.63 L 510.00 366.64 L 592.00 367.35 L 674.00 368.45 L 756.00 368.57 L 838.00 367.07" fill="none" stroke="#b42318" stroke-width="3"/><path d="M 100.00 125.49 L 182.00 330.77 L 264.00 348.30 L 346.00 353.85 L 428.00 357.49 L 510.00 361.06 L 592.00 361.80 L 674.00 363.78 L 756.00 364.45 L 838.00 366.27" fill="none" stroke="#176b87" stroke-width="3"/><circle cx="100.00" cy="125.35" r="2.2" fill="#b42318"/><circle cx="182.00" cy="342.37" r="2.2" fill="#b42318"/><circle cx="264.00" cy="355.74" r="2.2" fill="#b42318"/><circle cx="346.00" cy="360.23" r="2.2" fill="#b42318"/><circle cx="428.00" cy="363.63" r="2.2" fill="#b42318"/><circle cx="510.00" cy="366.64" r="2.2" fill="#b42318"/><circle cx="592.00" cy="367.35" r="2.2" fill="#b42318"/><circle cx="674.00" cy="368.45" r="2.2" fill="#b42318"/><circle cx="756.00" cy="368.57" r="2.2" fill="#b42318"/><circle cx="838.00" cy="367.07" r="2.2" fill="#b42318"/><circle cx="100.00" cy="125.49" r="2.2" fill="#176b87"/><circle cx="182.00" cy="330.77" r="2.2" fill="#176b87"/><circle cx="264.00" cy="348.30" r="2.2" fill="#176b87"/><circle cx="346.00" cy="353.85" r="2.2" fill="#176b87"/><circle cx="428.00" cy="357.49" r="2.2" fill="#176b87"/><circle cx="510.00" cy="361.06" r="2.2" fill="#176b87"/><circle cx="592.00" cy="361.80" r="2.2" fill="#176b87"/><circle cx="674.00" cy="363.78" r="2.2" fill="#176b87"/><circle cx="756.00" cy="364.45" r="2.2" fill="#176b87"/><circle cx="838.00" cy="366.27" r="2.2" fill="#176b87"/><line x1="690" y1="95" x2="720" y2="95" stroke="#b42318" stroke-width="3"/><text x="730" y="99" font-size="13" fill="#1f2937">1e-3</text><line x1="790" y1="95" x2="820" y2="95" stroke="#176b87" stroke-width="3"/><text x="830" y="99" font-size="13" fill="#1f2937">3e-4</text><text x="100" y="482" font-size="16" fill="#1f2937">Training loss (log scale)</text><line x1="100" y1="890.00" x2="920" y2="890.00" stroke="#e5e7eb"/><text x="88" y="894.00" text-anchor="end" font-size="12" fill="#4b5563">1</text><line x1="100" y1="833.41" x2="920" y2="833.41" stroke="#e5e7eb"/><text x="88" y="837.41" text-anchor="end" font-size="12" fill="#4b5563">10</text><line x1="100" y1="776.81" x2="920" y2="776.81" stroke="#e5e7eb"/><text x="88" y="780.81" text-anchor="end" font-size="12" fill="#4b5563">100</text><line x1="100" y1="720.22" x2="920" y2="720.22" stroke="#e5e7eb"/><text x="88" y="724.22" text-anchor="end" font-size="12" fill="#4b5563">1000</text><line x1="100" y1="663.63" x2="920" y2="663.63" stroke="#e5e7eb"/><text x="88" y="667.63" text-anchor="end" font-size="12" fill="#4b5563">10000</text><line x1="100" y1="607.04" x2="920" y2="607.04" stroke="#e5e7eb"/><text x="88" y="611.04" text-anchor="end" font-size="12" fill="#4b5563">100000</text><line x1="100.00" y1="60" x2="100.00" y2="890" stroke="#f3f4f6"/><text x="100.00" y="912" text-anchor="middle" font-size="12" fill="#4b5563">0</text><line x1="264.00" y1="60" x2="264.00" y2="890" stroke="#f3f4f6"/><text x="264.00" y="912" text-anchor="middle" font-size="12" fill="#4b5563">200</text><line x1="428.00" y1="60" x2="428.00" y2="890" stroke="#f3f4f6"/><text x="428.00" y="912" text-anchor="middle" font-size="12" fill="#4b5563">400</text><line x1="592.00" y1="60" x2="592.00" y2="890" stroke="#f3f4f6"/><text x="592.00" y="912" text-anchor="middle" font-size="12" fill="#4b5563">600</text><line x1="756.00" y1="60" x2="756.00" y2="890" stroke="#f3f4f6"/><text x="756.00" y="912" text-anchor="middle" font-size="12" fill="#4b5563">800</text><line x1="920.00" y1="60" x2="920.00" y2="890" stroke="#f3f4f6"/><text x="920.00" y="912" text-anchor="middle" font-size="12" fill="#4b5563">1000</text><line x1="100" y1="890" x2="920" y2="890" stroke="#374151" stroke-width="1.5"/><line x1="100" y1="540" x2="100" y2="890" stroke="#374151" stroke-width="1.5"/><text x="40" y="715" text-anchor="middle" transform="rotate(-90 40 715)" font-size="12" fill="#4b5563">Training loss</text><path d="M 100.00 826.05 L 108.20 832.78 L 116.40 840.02 L 124.60 848.10 L 132.80 851.75 L 141.00 854.25 L 149.20 856.31 L 157.40 857.79 L 165.60 859.23 L 173.80 860.80 L 182.00 861.55 L 190.20 862.43 L 198.40 863.20 L 206.60 863.98 L 214.80 864.38 L 223.00 865.63 L 231.20 865.81 L 239.40 866.70 L 247.60 866.16 L 255.80 867.15 L 264.00 867.15 L 272.20 868.07 L 280.40 867.53 L 288.60 867.65 L 296.80 868.38 L 305.00 868.83 L 313.20 868.69 L 321.40 868.75 L 329.60 869.46 L 337.80 869.54 L 346.00 869.76 L 354.20 869.81 L 362.40 869.09 L 370.60 870.31 L 378.80 870.73 L 387.00 870.94 L 395.20 870.47 L 403.40 871.35 L 411.60 870.66 L 419.80 871.70 L 428.00 871.70 L 436.20 870.86 L 444.40 871.68 L 452.60 871.72 L 460.80 871.39 L 469.00 871.40 L 477.20 871.66 L 485.40 871.22 L 493.60 871.80 L 501.80 871.59 L 510.00 872.19 L 518.20 872.44 L 526.40 871.40 L 534.60 872.81 L 542.80 873.01 L 551.00 872.30 L 559.20 872.96 L 567.40 872.77 L 575.60 872.85 L 583.80 873.88 L 592.00 873.28 L 600.20 872.03 L 608.40 873.20 L 616.60 873.75 L 624.80 872.71 L 633.00 873.68 L 641.20 873.31 L 649.40 873.63 L 657.60 873.21 L 665.80 873.72 L 674.00 874.01 L 682.20 873.86 L 690.40 873.31 L 698.60 873.25 L 706.80 873.90 L 715.00 873.67 L 723.20 874.53 L 731.40 874.17 L 739.60 873.31 L 747.80 874.09 L 756.00 874.42 L 764.20 873.87 L 772.40 874.40 L 780.60 873.99 L 788.80 873.54 L 797.00 834.59 L 805.20 870.42 L 813.40 872.77 L 821.60 872.49 L 829.80 852.92 L 838.00 872.98 L 846.20 872.34 L 854.40 595.95 L 862.60 864.65 L 870.80 873.81 L 879.00 873.55 L 887.20 874.30 L 895.40 873.84 L 903.60 874.29 L 911.80 874.21" fill="none" stroke="#b42318" stroke-width="2.5"/><path d="M 100.00 826.54 L 108.20 829.85 L 116.40 834.32 L 124.60 838.34 L 132.80 845.04 L 141.00 849.12 L 149.20 852.17 L 157.40 853.90 L 165.60 855.84 L 173.80 856.39 L 182.00 857.61 L 190.20 858.49 L 198.40 859.56 L 206.60 860.53 L 214.80 860.89 L 223.00 861.68 L 231.20 862.29 L 239.40 862.45 L 247.60 862.41 L 255.80 863.62 L 264.00 863.98 L 272.20 863.86 L 280.40 863.82 L 288.60 865.09 L 296.80 864.73 L 305.00 864.86 L 313.20 866.14 L 321.40 865.31 L 329.60 866.02 L 337.80 865.93 L 346.00 865.78 L 354.20 866.16 L 362.40 866.67 L 370.60 866.27 L 378.80 867.32 L 387.00 866.79 L 395.20 867.15 L 403.40 867.69 L 411.60 867.66 L 419.80 867.15 L 428.00 867.78 L 436.20 868.18 L 444.40 867.44 L 452.60 868.17 L 460.80 868.16 L 469.00 868.87 L 477.20 868.75 L 485.40 868.85 L 493.60 868.74 L 501.80 868.24 L 510.00 869.21 L 518.20 869.12 L 526.40 869.76 L 534.60 869.18 L 542.80 869.16 L 551.00 869.58 L 559.20 869.37 L 567.40 869.64 L 575.60 869.45 L 583.80 869.91 L 592.00 869.54 L 600.20 869.70 L 608.40 869.81 L 616.60 870.29 L 624.80 870.48 L 633.00 870.02 L 641.20 870.05 L 649.40 870.03 L 657.60 870.42 L 665.80 870.21 L 674.00 871.43 L 682.20 870.81 L 690.40 870.15 L 698.60 870.72 L 706.80 871.32 L 715.00 871.46 L 723.20 871.13 L 731.40 871.30 L 739.60 871.44 L 747.80 871.42 L 756.00 871.64 L 764.20 872.04 L 772.40 872.46 L 780.60 872.14 L 788.80 871.44 L 797.00 871.34 L 805.20 872.09 L 813.40 872.11 L 821.60 871.97 L 829.80 871.20 L 838.00 872.13 L 846.20 871.19 L 854.40 871.46 L 862.60 872.39 L 870.80 872.83 L 879.00 871.49 L 887.20 872.10 L 895.40 871.84 L 903.60 872.34 L 911.80 872.46" fill="none" stroke="#176b87" stroke-width="2.5"/><circle cx="100.00" cy="826.05" r="2.2" fill="#b42318"/><circle cx="108.20" cy="832.78" r="2.2" fill="#b42318"/><circle cx="116.40" cy="840.02" r="2.2" fill="#b42318"/><circle cx="124.60" cy="848.10" r="2.2" fill="#b42318"/><circle cx="132.80" cy="851.75" r="2.2" fill="#b42318"/><circle cx="141.00" cy="854.25" r="2.2" fill="#b42318"/><circle cx="149.20" cy="856.31" r="2.2" fill="#b42318"/><circle cx="157.40" cy="857.79" r="2.2" fill="#b42318"/><circle cx="165.60" cy="859.23" r="2.2" fill="#b42318"/><circle cx="173.80" cy="860.80" r="2.2" fill="#b42318"/><circle cx="182.00" cy="861.55" r="2.2" fill="#b42318"/><circle cx="190.20" cy="862.43" r="2.2" fill="#b42318"/><circle cx="198.40" cy="863.20" r="2.2" fill="#b42318"/><circle cx="206.60" cy="863.98" r="2.2" fill="#b42318"/><circle cx="214.80" cy="864.38" r="2.2" fill="#b42318"/><circle cx="223.00" cy="865.63" r="2.2" fill="#b42318"/><circle cx="231.20" cy="865.81" r="2.2" fill="#b42318"/><circle cx="239.40" cy="866.70" r="2.2" fill="#b42318"/><circle cx="247.60" cy="866.16" r="2.2" fill="#b42318"/><circle cx="255.80" cy="867.15" r="2.2" fill="#b42318"/><circle cx="264.00" cy="867.15" r="2.2" fill="#b42318"/><circle cx="272.20" cy="868.07" r="2.2" fill="#b42318"/><circle cx="280.40" cy="867.53" r="2.2" fill="#b42318"/><circle cx="288.60" cy="867.65" r="2.2" fill="#b42318"/><circle cx="296.80" cy="868.38" r="2.2" fill="#b42318"/><circle cx="305.00" cy="868.83" r="2.2" fill="#b42318"/><circle cx="313.20" cy="868.69" r="2.2" fill="#b42318"/><circle cx="321.40" cy="868.75" r="2.2" fill="#b42318"/><circle cx="329.60" cy="869.46" r="2.2" fill="#b42318"/><circle cx="337.80" cy="869.54" r="2.2" fill="#b42318"/><circle cx="346.00" cy="869.76" r="2.2" fill="#b42318"/><circle cx="354.20" cy="869.81" r="2.2" fill="#b42318"/><circle cx="362.40" cy="869.09" r="2.2" fill="#b42318"/><circle cx="370.60" cy="870.31" r="2.2" fill="#b42318"/><circle cx="378.80" cy="870.73" r="2.2" fill="#b42318"/><circle cx="387.00" cy="870.94" r="2.2" fill="#b42318"/><circle cx="395.20" cy="870.47" r="2.2" fill="#b42318"/><circle cx="403.40" cy="871.35" r="2.2" fill="#b42318"/><circle cx="411.60" cy="870.66" r="2.2" fill="#b42318"/><circle cx="419.80" cy="871.70" r="2.2" fill="#b42318"/><circle cx="428.00" cy="871.70" r="2.2" fill="#b42318"/><circle cx="436.20" cy="870.86" r="2.2" fill="#b42318"/><circle cx="444.40" cy="871.68" r="2.2" fill="#b42318"/><circle cx="452.60" cy="871.72" r="2.2" fill="#b42318"/><circle cx="460.80" cy="871.39" r="2.2" fill="#b42318"/><circle cx="469.00" cy="871.40" r="2.2" fill="#b42318"/><circle cx="477.20" cy="871.66" r="2.2" fill="#b42318"/><circle cx="485.40" cy="871.22" r="2.2" fill="#b42318"/><circle cx="493.60" cy="871.80" r="2.2" fill="#b42318"/><circle cx="501.80" cy="871.59" r="2.2" fill="#b42318"/><circle cx="510.00" cy="872.19" r="2.2" fill="#b42318"/><circle cx="518.20" cy="872.44" r="2.2" fill="#b42318"/><circle cx="526.40" cy="871.40" r="2.2" fill="#b42318"/><circle cx="534.60" cy="872.81" r="2.2" fill="#b42318"/><circle cx="542.80" cy="873.01" r="2.2" fill="#b42318"/><circle cx="551.00" cy="872.30" r="2.2" fill="#b42318"/><circle cx="559.20" cy="872.96" r="2.2" fill="#b42318"/><circle cx="567.40" cy="872.77" r="2.2" fill="#b42318"/><circle cx="575.60" cy="872.85" r="2.2" fill="#b42318"/><circle cx="583.80" cy="873.88" r="2.2" fill="#b42318"/><circle cx="592.00" cy="873.28" r="2.2" fill="#b42318"/><circle cx="600.20" cy="872.03" r="2.2" fill="#b42318"/><circle cx="608.40" cy="873.20" r="2.2" fill="#b42318"/><circle cx="616.60" cy="873.75" r="2.2" fill="#b42318"/><circle cx="624.80" cy="872.71" r="2.2" fill="#b42318"/><circle cx="633.00" cy="873.68" r="2.2" fill="#b42318"/><circle cx="641.20" cy="873.31" r="2.2" fill="#b42318"/><circle cx="649.40" cy="873.63" r="2.2" fill="#b42318"/><circle cx="657.60" cy="873.21" r="2.2" fill="#b42318"/><circle cx="665.80" cy="873.72" r="2.2" fill="#b42318"/><circle cx="674.00" cy="874.01" r="2.2" fill="#b42318"/><circle cx="682.20" cy="873.86" r="2.2" fill="#b42318"/><circle cx="690.40" cy="873.31" r="2.2" fill="#b42318"/><circle cx="698.60" cy="873.25" r="2.2" fill="#b42318"/><circle cx="706.80" cy="873.90" r="2.2" fill="#b42318"/><circle cx="715.00" cy="873.67" r="2.2" fill="#b42318"/><circle cx="723.20" cy="874.53" r="2.2" fill="#b42318"/><circle cx="731.40" cy="874.17" r="2.2" fill="#b42318"/><circle cx="739.60" cy="873.31" r="2.2" fill="#b42318"/><circle cx="747.80" cy="874.09" r="2.2" fill="#b42318"/><circle cx="756.00" cy="874.42" r="2.2" fill="#b42318"/><circle cx="764.20" cy="873.87" r="2.2" fill="#b42318"/><circle cx="772.40" cy="874.40" r="2.2" fill="#b42318"/><circle cx="780.60" cy="873.99" r="2.2" fill="#b42318"/><circle cx="788.80" cy="873.54" r="2.2" fill="#b42318"/><circle cx="797.00" cy="834.59" r="2.2" fill="#b42318"/><circle cx="805.20" cy="870.42" r="2.2" fill="#b42318"/><circle cx="813.40" cy="872.77" r="2.2" fill="#b42318"/><circle cx="821.60" cy="872.49" r="2.2" fill="#b42318"/><circle cx="829.80" cy="852.92" r="2.2" fill="#b42318"/><circle cx="838.00" cy="872.98" r="2.2" fill="#b42318"/><circle cx="846.20" cy="872.34" r="2.2" fill="#b42318"/><circle cx="854.40" cy="595.95" r="2.2" fill="#b42318"/><circle cx="862.60" cy="864.65" r="2.2" fill="#b42318"/><circle cx="870.80" cy="873.81" r="2.2" fill="#b42318"/><circle cx="879.00" cy="873.55" r="2.2" fill="#b42318"/><circle cx="887.20" cy="874.30" r="2.2" fill="#b42318"/><circle cx="895.40" cy="873.84" r="2.2" fill="#b42318"/><circle cx="903.60" cy="874.29" r="2.2" fill="#b42318"/><circle cx="911.80" cy="874.21" r="2.2" fill="#b42318"/><circle cx="100.00" cy="826.54" r="2.2" fill="#176b87"/><circle cx="108.20" cy="829.85" r="2.2" fill="#176b87"/><circle cx="116.40" cy="834.32" r="2.2" fill="#176b87"/><circle cx="124.60" cy="838.34" r="2.2" fill="#176b87"/><circle cx="132.80" cy="845.04" r="2.2" fill="#176b87"/><circle cx="141.00" cy="849.12" r="2.2" fill="#176b87"/><circle cx="149.20" cy="852.17" r="2.2" fill="#176b87"/><circle cx="157.40" cy="853.90" r="2.2" fill="#176b87"/><circle cx="165.60" cy="855.84" r="2.2" fill="#176b87"/><circle cx="173.80" cy="856.39" r="2.2" fill="#176b87"/><circle cx="182.00" cy="857.61" r="2.2" fill="#176b87"/><circle cx="190.20" cy="858.49" r="2.2" fill="#176b87"/><circle cx="198.40" cy="859.56" r="2.2" fill="#176b87"/><circle cx="206.60" cy="860.53" r="2.2" fill="#176b87"/><circle cx="214.80" cy="860.89" r="2.2" fill="#176b87"/><circle cx="223.00" cy="861.68" r="2.2" fill="#176b87"/><circle cx="231.20" cy="862.29" r="2.2" fill="#176b87"/><circle cx="239.40" cy="862.45" r="2.2" fill="#176b87"/><circle cx="247.60" cy="862.41" r="2.2" fill="#176b87"/><circle cx="255.80" cy="863.62" r="2.2" fill="#176b87"/><circle cx="264.00" cy="863.98" r="2.2" fill="#176b87"/><circle cx="272.20" cy="863.86" r="2.2" fill="#176b87"/><circle cx="280.40" cy="863.82" r="2.2" fill="#176b87"/><circle cx="288.60" cy="865.09" r="2.2" fill="#176b87"/><circle cx="296.80" cy="864.73" r="2.2" fill="#176b87"/><circle cx="305.00" cy="864.86" r="2.2" fill="#176b87"/><circle cx="313.20" cy="866.14" r="2.2" fill="#176b87"/><circle cx="321.40" cy="865.31" r="2.2" fill="#176b87"/><circle cx="329.60" cy="866.02" r="2.2" fill="#176b87"/><circle cx="337.80" cy="865.93" r="2.2" fill="#176b87"/><circle cx="346.00" cy="865.78" r="2.2" fill="#176b87"/><circle cx="354.20" cy="866.16" r="2.2" fill="#176b87"/><circle cx="362.40" cy="866.67" r="2.2" fill="#176b87"/><circle cx="370.60" cy="866.27" r="2.2" fill="#176b87"/><circle cx="378.80" cy="867.32" r="2.2" fill="#176b87"/><circle cx="387.00" cy="866.79" r="2.2" fill="#176b87"/><circle cx="395.20" cy="867.15" r="2.2" fill="#176b87"/><circle cx="403.40" cy="867.69" r="2.2" fill="#176b87"/><circle cx="411.60" cy="867.66" r="2.2" fill="#176b87"/><circle cx="419.80" cy="867.15" r="2.2" fill="#176b87"/><circle cx="428.00" cy="867.78" r="2.2" fill="#176b87"/><circle cx="436.20" cy="868.18" r="2.2" fill="#176b87"/><circle cx="444.40" cy="867.44" r="2.2" fill="#176b87"/><circle cx="452.60" cy="868.17" r="2.2" fill="#176b87"/><circle cx="460.80" cy="868.16" r="2.2" fill="#176b87"/><circle cx="469.00" cy="868.87" r="2.2" fill="#176b87"/><circle cx="477.20" cy="868.75" r="2.2" fill="#176b87"/><circle cx="485.40" cy="868.85" r="2.2" fill="#176b87"/><circle cx="493.60" cy="868.74" r="2.2" fill="#176b87"/><circle cx="501.80" cy="868.24" r="2.2" fill="#176b87"/><circle cx="510.00" cy="869.21" r="2.2" fill="#176b87"/><circle cx="518.20" cy="869.12" r="2.2" fill="#176b87"/><circle cx="526.40" cy="869.76" r="2.2" fill="#176b87"/><circle cx="534.60" cy="869.18" r="2.2" fill="#176b87"/><circle cx="542.80" cy="869.16" r="2.2" fill="#176b87"/><circle cx="551.00" cy="869.58" r="2.2" fill="#176b87"/><circle cx="559.20" cy="869.37" r="2.2" fill="#176b87"/><circle cx="567.40" cy="869.64" r="2.2" fill="#176b87"/><circle cx="575.60" cy="869.45" r="2.2" fill="#176b87"/><circle cx="583.80" cy="869.91" r="2.2" fill="#176b87"/><circle cx="592.00" cy="869.54" r="2.2" fill="#176b87"/><circle cx="600.20" cy="869.70" r="2.2" fill="#176b87"/><circle cx="608.40" cy="869.81" r="2.2" fill="#176b87"/><circle cx="616.60" cy="870.29" r="2.2" fill="#176b87"/><circle cx="624.80" cy="870.48" r="2.2" fill="#176b87"/><circle cx="633.00" cy="870.02" r="2.2" fill="#176b87"/><circle cx="641.20" cy="870.05" r="2.2" fill="#176b87"/><circle cx="649.40" cy="870.03" r="2.2" fill="#176b87"/><circle cx="657.60" cy="870.42" r="2.2" fill="#176b87"/><circle cx="665.80" cy="870.21" r="2.2" fill="#176b87"/><circle cx="674.00" cy="871.43" r="2.2" fill="#176b87"/><circle cx="682.20" cy="870.81" r="2.2" fill="#176b87"/><circle cx="690.40" cy="870.15" r="2.2" fill="#176b87"/><circle cx="698.60" cy="870.72" r="2.2" fill="#176b87"/><circle cx="706.80" cy="871.32" r="2.2" fill="#176b87"/><circle cx="715.00" cy="871.46" r="2.2" fill="#176b87"/><circle cx="723.20" cy="871.13" r="2.2" fill="#176b87"/><circle cx="731.40" cy="871.30" r="2.2" fill="#176b87"/><circle cx="739.60" cy="871.44" r="2.2" fill="#176b87"/><circle cx="747.80" cy="871.42" r="2.2" fill="#176b87"/><circle cx="756.00" cy="871.64" r="2.2" fill="#176b87"/><circle cx="764.20" cy="872.04" r="2.2" fill="#176b87"/><circle cx="772.40" cy="872.46" r="2.2" fill="#176b87"/><circle cx="780.60" cy="872.14" r="2.2" fill="#176b87"/><circle cx="788.80" cy="871.44" r="2.2" fill="#176b87"/><circle cx="797.00" cy="871.34" r="2.2" fill="#176b87"/><circle cx="805.20" cy="872.09" r="2.2" fill="#176b87"/><circle cx="813.40" cy="872.11" r="2.2" fill="#176b87"/><circle cx="821.60" cy="871.97" r="2.2" fill="#176b87"/><circle cx="829.80" cy="871.20" r="2.2" fill="#176b87"/><circle cx="838.00" cy="872.13" r="2.2" fill="#176b87"/><circle cx="846.20" cy="871.19" r="2.2" fill="#176b87"/><circle cx="854.40" cy="871.46" r="2.2" fill="#176b87"/><circle cx="862.60" cy="872.39" r="2.2" fill="#176b87"/><circle cx="870.80" cy="872.83" r="2.2" fill="#176b87"/><circle cx="879.00" cy="871.49" r="2.2" fill="#176b87"/><circle cx="887.20" cy="872.10" r="2.2" fill="#176b87"/><circle cx="895.40" cy="871.84" r="2.2" fill="#176b87"/><circle cx="903.60" cy="872.34" r="2.2" fill="#176b87"/><circle cx="911.80" cy="872.46" r="2.2" fill="#176b87"/><line x1="690" y1="510" x2="720" y2="510" stroke="#b42318" stroke-width="3"/><text x="730" y="514" font-size="13" fill="#1f2937">1e-3</text><line x1="790" y1="510" x2="820" y2="510" stroke="#176b87" stroke-width="3"/><text x="830" y="514" font-size="13" fill="#1f2937">3e-4</text><text x="862.4" y="587.9468589131161" font-size="12" fill="#b42318">157k spike</text><line x1="854.4" y1="595.9468589131161" x2="859.4" y2="595.9468589131161" stroke="#b42318"/><text x="100" y="958" font-size="12" fill="#6b7280">Validation checkpoints were recorded every 100 steps; training loss was recorded every 10 steps.</text></g></svg>